<?xml version="1.0" encoding="UTF-8" standalone="no"?>
<!-- Created with Inkscape (http://www.inkscape.org/) -->

<svg
   xmlns:dc="http://purl.org/dc/elements/1.1/"
   xmlns:cc="http://creativecommons.org/ns#"
   xmlns:rdf="http://www.w3.org/1999/02/22-rdf-syntax-ns#"
   xmlns:svg="http://www.w3.org/2000/svg"
   xmlns="http://www.w3.org/2000/svg"
   xmlns:xlink="http://www.w3.org/1999/xlink"
   xmlns:sodipodi="http://sodipodi.sourceforge.net/DTD/sodipodi-0.dtd"
   xmlns:inkscape="http://www.inkscape.org/namespaces/inkscape"
   width="128"
   height="128"
   id="svg3886"
   version="1.1"
   inkscape:version="0.48.2 r9819"
   sodipodi:docname="gpk-prefs.svg">
  <defs
     id="defs3888">
    <linearGradient
       inkscape:collect="always"
       xlink:href="#linearGradient3924"
       id="linearGradient2984"
       gradientUnits="userSpaceOnUse"
       gradientTransform="matrix(2.7297298,0,0,2.7297298,-1.5135108,-62.513486)"
       x1="23.99999"
       y1="4.999989"
       x2="23.99999"
       y2="43" />
    <linearGradient
       id="linearGradient3924">
      <stop
         id="stop3926"
         style="stop-color:#ffffff;stop-opacity:1;"
         offset="0" />
      <stop
         offset="0.06316455"
         style="stop-color:#ffffff;stop-opacity:0.23529412;"
         id="stop3928" />
      <stop
         id="stop3930"
         style="stop-color:#ffffff;stop-opacity:0.15686275;"
         offset="0.95056331" />
      <stop
         id="stop3932"
         style="stop-color:#ffffff;stop-opacity:0.39215687;"
         offset="1" />
    </linearGradient>
    <radialGradient
       inkscape:collect="always"
       xlink:href="#linearGradient7012-661-145-733-759-865-745-661-970-94-8"
       id="radialGradient2990"
       gradientUnits="userSpaceOnUse"
       gradientTransform="matrix(5.131108e-8,6.1720507,-6.5292935,-1.1371273e-7,119.1713,-93.225241)"
       cx="7.4956832"
       cy="8.4497671"
       fx="7.4956832"
       fy="8.4497671"
       r="19.99999" />
    <linearGradient
       id="linearGradient7012-661-145-733-759-865-745-661-970-94-8">
      <stop
         id="stop3618-1"
         style="stop-color:#ed665f;stop-opacity:1;"
         offset="0" />
      <stop
         id="stop3270-2"
         style="stop-color:#eb564e;stop-opacity:1;"
         offset="0.5" />
      <stop
         id="stop3620-8"
         style="stop-color:#de291f;stop-opacity:0.94117647;"
         offset="1" />
    </linearGradient>
    <linearGradient
       inkscape:collect="always"
       xlink:href="#linearGradient3390-178-986-453-3"
       id="linearGradient2992"
       gradientUnits="userSpaceOnUse"
       gradientTransform="matrix(2.6410257,0,0,2.6410257,0.6153792,-60.384617)"
       x1="24"
       y1="44"
       x2="24"
       y2="3.8990016" />
    <linearGradient
       id="linearGradient3390-178-986-453-3">
      <stop
         id="stop3624-6"
         style="stop-color:#ba4712;stop-opacity:1;"
         offset="0" />
      <stop
         offset="0.5"
         style="stop-color:#cf671c;stop-opacity:1;"
         id="stop3856-8" />
      <stop
         id="stop3626-0"
         style="stop-color:#e27f39;stop-opacity:1;"
         offset="1" />
    </linearGradient>
    <radialGradient
       cx="4.9929786"
       cy="43.5"
       r="2.5"
       fx="4.9929786"
       fy="43.5"
       id="radialGradient2455"
       xlink:href="#linearGradient3688-166-749"
       gradientUnits="userSpaceOnUse"
       gradientTransform="matrix(2.003784,0,0,1.4,27.98813,-17.4)" />
    <linearGradient
       id="linearGradient3688-166-749">
      <stop
         id="stop2883"
         style="stop-color:#181818;stop-opacity:1"
         offset="0" />
      <stop
         id="stop2885"
         style="stop-color:#181818;stop-opacity:0"
         offset="1" />
    </linearGradient>
    <radialGradient
       cx="4.9929786"
       cy="43.5"
       r="2.5"
       fx="4.9929786"
       fy="43.5"
       id="radialGradient2457"
       xlink:href="#linearGradient3688-464-309"
       gradientUnits="userSpaceOnUse"
       gradientTransform="matrix(2.003784,0,0,1.4,-20.01187,-104.4)" />
    <linearGradient
       id="linearGradient3688-464-309">
      <stop
         id="stop2889"
         style="stop-color:#181818;stop-opacity:1"
         offset="0" />
      <stop
         id="stop2891"
         style="stop-color:#181818;stop-opacity:0"
         offset="1" />
    </linearGradient>
    <linearGradient
       x1="25.058096"
       y1="47.027729"
       x2="25.058096"
       y2="39.999443"
       id="linearGradient2459"
       xlink:href="#linearGradient3702-501-757"
       gradientUnits="userSpaceOnUse" />
    <linearGradient
       id="linearGradient3702-501-757">
      <stop
         id="stop2895"
         style="stop-color:#181818;stop-opacity:0"
         offset="0" />
      <stop
         id="stop2897"
         style="stop-color:#181818;stop-opacity:1"
         offset="0.5" />
      <stop
         id="stop2899"
         style="stop-color:#181818;stop-opacity:0"
         offset="1" />
    </linearGradient>
    <linearGradient
       inkscape:collect="always"
       xlink:href="#linearGradient8265-821-176-38-919-66-249-7-7"
       id="linearGradient3568"
       gradientUnits="userSpaceOnUse"
       gradientTransform="matrix(0.82498024,0,0,1.3012336,4.1618797,-1.4329212)"
       x1="16.626165"
       y1="15.298182"
       x2="20.054544"
       y2="24.627615" />
    <linearGradient
       id="linearGradient8265-821-176-38-919-66-249-7-7">
      <stop
         offset="0"
         style="stop-color:#ffffff;stop-opacity:1"
         id="stop2687-1-9" />
      <stop
         offset="1"
         style="stop-color:#ffffff;stop-opacity:0"
         id="stop2689-5-4" />
    </linearGradient>
    <linearGradient
       y2="24.627615"
       x2="20.054544"
       y1="15.298182"
       x1="16.626165"
       gradientTransform="matrix(2.1375158,0,0,3.3714836,11.830225,-65.192915)"
       gradientUnits="userSpaceOnUse"
       id="linearGradient7220"
       xlink:href="#linearGradient8265-821-176-38-919-66-249-7-7"
       inkscape:collect="always" />
  </defs>
  <sodipodi:namedview
     id="base"
     pagecolor="#ffffff"
     bordercolor="#666666"
     borderopacity="1.0"
     inkscape:pageopacity="0.0"
     inkscape:pageshadow="2"
     inkscape:zoom="1"
     inkscape:cx="181.88759"
     inkscape:cy="97.72879"
     inkscape:current-layer="layer1"
     showgrid="true"
     inkscape:document-units="px"
     inkscape:grid-bbox="true"
     inkscape:window-width="1920"
     inkscape:window-height="1105"
     inkscape:window-x="0"
     inkscape:window-y="24"
     inkscape:window-maximized="1" />
  <metadata
     id="metadata3891">
    <rdf:RDF>
      <cc:Work
         rdf:about="">
        <dc:format>image/svg+xml</dc:format>
        <dc:type
           rdf:resource="http://purl.org/dc/dcmitype/StillImage" />
        <dc:title></dc:title>
      </cc:Work>
    </rdf:RDF>
  </metadata>
  <g
     id="layer1"
     inkscape:label="Layer 1"
     inkscape:groupmode="layer"
     transform="translate(0,64)">
    <g
       transform="matrix(2.9499988,0,0,1.2222234,-6.8000012,1.555537)"
       id="g2036"
       style="display:inline">
      <g
         transform="matrix(1.052632,0,0,1.285713,-1.263158,-13.42854)"
         id="g3712"
         style="opacity:0.4">
        <rect
           width="5"
           height="7"
           x="38"
           y="40"
           id="rect2801"
           style="fill:url(#radialGradient2455);fill-opacity:1;stroke:none" />
        <rect
           width="5"
           height="7"
           x="-10"
           y="-47"
           transform="scale(-1,-1)"
           id="rect3696"
           style="fill:url(#radialGradient2457);fill-opacity:1;stroke:none" />
        <rect
           width="28"
           height="7.0000005"
           x="10"
           y="40"
           id="rect3700"
           style="fill:url(#linearGradient2459);fill-opacity:1;stroke:none" />
      </g>
    </g>
    <rect
       style="color:#000000;fill:url(#radialGradient2990);fill-opacity:1;fill-rule:nonzero;stroke:url(#linearGradient2992);stroke-width:0.99999994;stroke-linecap:round;stroke-linejoin:round;stroke-miterlimit:4;stroke-opacity:1;stroke-dasharray:none;stroke-dashoffset:0;marker:none;visibility:visible;display:inline;overflow:visible;enable-background:accumulate"
       id="rect5505-21"
       y="-48.5"
       x="12.5"
       ry="6"
       rx="6"
       height="103"
       width="103" />
    <rect
       style="opacity:0.5;fill:none;stroke:url(#linearGradient2984);stroke-width:0.99999994;stroke-linecap:round;stroke-linejoin:round;stroke-miterlimit:4;stroke-opacity:1;stroke-dasharray:none;stroke-dashoffset:0"
       id="rect6741-7"
       y="-47.5"
       x="13.5"
       ry="5"
       rx="5"
       height="101"
       width="101" />
    <path
       inkscape:connector-curvature="0"
       style="opacity:0.2;fill:url(#linearGradient7220);fill-opacity:1;fill-rule:evenodd;stroke:none"
       id="path3333"
       d="m 15.166068,-45.669124 c 0,0 -1.56203,1.74547 -1.164282,4.398617 l 0.03278,57.519984 c 2.832385,-0.06262 97.777614,-23.0548347 99.927464,-24.1544069 l 0,-33.2329941 c 0.44332,-3.031978 -1.27524,-5.659066 -4.11606,-5.840559 l -92.160807,-0.01647 c -0.814226,0.340053 -1.59412,0.542777 -2.519095,1.325825 z"
       sodipodi:nodetypes="cccccccc" />
    <path
       inkscape:connector-curvature="0"
       style="opacity:0.15;fill:#ba4812;fill-opacity:1;stroke:none;display:inline"
       d="m 64.220775,-44.023085 c -0.808191,5.400067 -1.423983,10.144207 -1.891401,14.362692 -7.311743,0.43668 -13.852657,3.374713 -18.570169,7.859345 -2.766937,-2.545898 -6.131536,-6.167913 -10.331069,-11.59531 3.353134,7.986617 5.505374,12.1986 7.422327,14.846992 -2.959457,3.958636 -4.693599,8.700569 -4.699851,13.809211 L 24.501279,-9.707598 40.735832,8.9860437 C 45.47524,15.427546 53.464549,19.799382 62.615946,20.263107 l 0.02866,2.407626 c -8.475839,-1.215962 -17.511664,-6.022096 -25.591285,-9.229216 7.941212,4.673732 16.007253,19.633617 25.634262,12.716104 l 0.100294,6.876921 c -1.702309,-1.459101 -3.336721,-3.021613 -6.505282,-2.767343 5.483546,7.200982 4.078272,10.866023 7.938166,14.390345 3.859898,-3.524322 2.454615,-7.189363 7.938165,-14.390345 -3.168559,-0.25427 -4.802972,1.308242 -6.505289,2.767343 l 0.100303,-6.876921 c 9.627027,6.917513 17.693032,-8.042372 25.634191,-12.716104 -8.079541,3.20712 -17.115394,8.013254 -25.591189,9.229216 l 0.02865,-2.407626 C 74.982385,19.803204 82.967813,15.430876 87.705609,8.9860437 L 103.94028,-9.707598 92.276642,-4.726317 c -0.0051,-5.113911 -1.725884,-9.860827 -4.685492,-13.823049 1.916879,-2.648392 4.069147,-6.860375 7.422255,-14.846992 -4.199563,5.427346 -7.549812,9.049412 -10.31676,11.59531 -4.717267,-4.488787 -11.266345,-7.425553 -18.584471,-7.859345 -0.467423,-4.218485 -1.083208,-8.962625 -1.891403,-14.362692 z m 2.263964,17.863431 c 5.682604,0.505347 10.717778,3.386169 14.171154,7.679471 -6.643056,4.803287 -9.055255,3.329907 -14.013546,15.774055 0.782713,-4.126149 1.038112,-11.179288 -0.157608,-23.453526 z m -4.527919,0.110693 c -1.183581,12.206725 -0.938005,19.228945 -0.157618,23.342833 -4.804532,-12.058254 -7.208977,-11.049517 -13.397444,-15.345118 3.270208,-4.283689 8.075894,-7.250616 13.555062,-7.997715 z m 21.306955,11.719842 c 1.401241,2.897034 2.192299,6.157218 2.192299,9.61664 0,11.4696989 -8.666149,20.844962 -19.573153,21.488687 l 0.05735,-3.846652 14.586731,-14.556412 c -2.934995,1.225078 -7.54641,1.833771 -7.809187,4.0265388 l -6.662907,2.2277418 0.04297,-2.9887716 c 9.394109,-11.087628 13.868365,-13.600329 17.165903,-15.967772 z m -37.383894,0.498131 c 3.238289,2.258008 7.728992,5.160226 16.463819,15.469641 l 0.043,2.9887716 -6.66291,-2.2277418 C 55.461006,0.206915 50.849592,-0.401778 47.914575,-1.626856 l 14.586736,14.556412 0.05731,3.777469 C 52.091881,15.604012 43.916815,6.431052 43.916815,-4.712479 c 0,-3.262892 0.709135,-6.346687 1.963047,-9.118509 z"
       id="path3708-4"
       inkscape:export-filename="/home/codygarver/path18.png"
       inkscape:export-xdpi="90"
       inkscape:export-ydpi="90" />
    <path
       inkscape:connector-curvature="0"
       style="fill:#ffcc00;fill-opacity:1;stroke:none;display:inline"
       d="m 64.069027,-42.549471 c -0.772526,5.345285 -1.361142,10.041296 -1.807936,14.216988 -6.98909,0.432251 -13.24137,3.340479 -17.750704,7.779614 -2.644841,-2.52007 -5.860966,-6.10534 -9.875182,-11.477679 3.205169,7.905596 5.262433,12.07485 7.094796,14.696376 -2.828863,3.918477 -4.486481,8.6123061 -4.492456,13.6691221 L 26.102273,-8.5821009 41.620429,9.9219031 C 46.150695,16.298057 53.787453,20.625542 62.535018,21.084564 l 0.02742,2.383201 c -8.101839,-1.203628 -16.73893,-5.961004 -24.462016,-9.135587 7.590782,4.626316 15.300887,19.434441 24.503075,12.587102 l 0.09587,6.807159 c -1.627191,-1.4443 -3.18948,-2.99096 -6.218219,-2.73927 5.241568,7.12793 3.898305,10.75579 7.587871,14.24436 3.689567,-3.48857 2.346298,-7.11643 7.58787,-14.24436 -3.028736,-0.25169 -4.591027,1.29497 -6.218225,2.73927 l 0.09588,-6.807159 c 9.202205,6.847339 16.912271,-7.960786 24.503007,-12.587102 -7.723011,3.174583 -16.360131,7.931959 -24.461905,9.135587 l 0.02739,-2.383201 C 74.355755,20.629327 81.9888,16.301354 86.517528,9.9219031 l 15.518262,-18.504004 -11.148945,4.930749 c -0.0043,-5.062032 -1.649718,-9.7607931 -4.478725,-13.6828201 1.832288,-2.621526 3.889588,-6.79078 7.094722,-14.696376 -4.014246,5.372289 -7.216649,8.957609 -9.861498,11.477679 -4.509104,-4.443249 -10.769185,-7.350222 -17.764375,-7.779614 -0.446798,-4.175692 -1.035412,-8.871703 -1.807942,-14.216988 z m 2.16406,17.682211 c 5.431844,0.500224 10.244826,3.35182 13.545812,7.601569 -6.349914,4.754558 -8.655665,3.296127 -13.39516,15.6140331 0.748175,-4.08429 0.992304,-11.0658791 -0.150652,-23.2156021 z m -4.328109,0.109572 c -1.131355,12.082894 -0.896614,19.0338761 -0.150664,23.1060301 -4.592516,-11.9359271 -6.89086,-10.9374231 -12.80624,-15.1894481 3.125899,-4.240231 7.71952,-7.177062 12.956904,-7.916582 z m 20.366721,11.600951 c 1.339407,2.867644 2.095559,6.0947551 2.095559,9.5190821 0,11.353344 -8.283732,20.6334989 -18.709432,21.2706929 l 0.05481,-3.807629 13.943049,-14.40874295 c -2.805481,1.21265 -7.213402,1.81516805 -7.464583,3.98568905 l -6.368888,2.205143 0.04107,-2.958451 C 74.842859,-8.3260999 79.119676,-10.813312 82.271699,-13.156737 z m -35.734218,0.493076 c 3.09539,2.235102 7.387927,5.1078791 15.737302,15.3127081 l 0.04109,2.958451 -6.368886,-2.205143 c -0.251181,-2.170521 -4.6591,-2.77303905 -7.464601,-3.98568905 l 13.943052,14.40874295 0.05478,3.739147 C 52.475358,16.472734 44.661041,7.3928301 44.661041,-3.6376549 c 0,-3.229791 0.677844,-6.282302 1.876421,-9.0260061 z"
       id="path3708"
       inkscape:export-filename="/home/codygarver/path18.png"
       inkscape:export-xdpi="90"
       inkscape:export-ydpi="90" />
  </g>
</svg>
