<?xml version="1.0" encoding="UTF-8" standalone="no"?>
<svg
   version="1.1"
   width="16"
   height="16"
   id="svg4372"
   xmlns:xlink="http://www.w3.org/1999/xlink"
   xmlns="http://www.w3.org/2000/svg"
   xmlns:svg="http://www.w3.org/2000/svg"
   xmlns:rdf="http://www.w3.org/1999/02/22-rdf-syntax-ns#"
   xmlns:cc="http://creativecommons.org/ns#"
   xmlns:dc="http://purl.org/dc/elements/1.1/">
  <defs
     id="defs4374">
    <linearGradient
       x1="23.99999"
       y1="4.999989"
       x2="23.99999"
       y2="43"
       id="linearGradient3304"
       xlink:href="#linearGradient3924-4-8"
       gradientUnits="userSpaceOnUse"
       gradientTransform="matrix(0.2972973,0,0,0.2972973,0.86486906,0.8648672)" />
    <linearGradient
       id="linearGradient3924-4-8">
      <stop
         id="stop3926-0-4"
         style="stop-color:#ffffff;stop-opacity:1"
         offset="0" />
      <stop
         id="stop3928-6-8"
         style="stop-color:#ffffff;stop-opacity:0.23529412"
         offset="0.06316455" />
      <stop
         id="stop3930-2-1"
         style="stop-color:#ffffff;stop-opacity:0.15686275"
         offset="0.95056331" />
      <stop
         id="stop3932-9-0"
         style="stop-color:#ffffff;stop-opacity:0.39215687"
         offset="1" />
    </linearGradient>
    <linearGradient
       xlink:href="#linearGradient858"
       id="linearGradient867"
       x1="7.9050331"
       y1="1.5559154"
       x2="7.9050331"
       y2="14.459918"
       gradientUnits="userSpaceOnUse" />
    <linearGradient
       id="linearGradient858">
      <stop
         id="stop854"
         offset="0"
         style="stop-color:#ed5353;stop-opacity:1" />
      <stop
         id="stop856"
         offset="1"
         style="stop-color:#c6262e;stop-opacity:1" />
    </linearGradient>
  </defs>
  <metadata
     id="metadata4377">
    <rdf:RDF>
      <cc:Work
         rdf:about="">
        <dc:format>image/svg+xml</dc:format>
        <dc:type
           rdf:resource="http://purl.org/dc/dcmitype/StillImage" />
      </cc:Work>
    </rdf:RDF>
  </metadata>
  <rect
     width="13.000003"
     height="13.000003"
     rx="2"
     ry="2"
     x="1.5"
     y="1.499997"
     id="rect5505-21-2"
     style="color:#000000;display:inline;overflow:visible;visibility:visible;fill:url(#linearGradient867);fill-opacity:1.0;fill-rule:nonzero;stroke:none;stroke-width:1;marker:none;enable-background:accumulate" />
  <rect
     width="13.000003"
     height="13.000003"
     rx="2"
     ry="2"
     x="1.5"
     y="1.499997"
     id="rect5505-21-2-8"
     style="color:#000000;display:inline;overflow:visible;visibility:visible;opacity:0.5;fill:none;stroke:#7a0000;stroke-width:1;stroke-linecap:round;stroke-linejoin:round;stroke-miterlimit:4;stroke-dasharray:none;stroke-dashoffset:0;stroke-opacity:1;marker:none;enable-background:accumulate" />
  <path
     id="rect5505-21-2-8-2"
     style="color:#000000;font-variation-settings:normal;display:inline;overflow:visible;visibility:visible;opacity:1;vector-effect:none;fill:#363b3d;fill-opacity:1;stroke:#000000;stroke-width:1;stroke-linecap:round;stroke-linejoin:round;stroke-miterlimit:4;stroke-dasharray:none;stroke-dashoffset:0;stroke-opacity:0.5;-inkscape-stroke:none;marker:none;enable-background:accumulate;stop-color:#000000;stop-opacity:1"
     d="m 1.5,11.5 v 1 c 0,1.107999 0.8920011,2 2,2 h 9 c 1.107999,0 2,-0.892001 2,-2 v -1 z" />
  <path
     d="m 6.2790707,4.0178507 a 0.98920171,0.99108973 0 0 0 -0.093024,0.031067 0.98920171,0.99108973 0 0 0 -0.1550396,0.031067 c 0.012247,-0.00419 -0.1359065,0.036216 -0.1240317,0.031067 0.011874,-0.00515 -0.1044498,0.068217 -0.093024,0.062134 0.011426,-0.00608 -0.1349358,0.069113 -0.1240317,0.062134 0.010904,-0.00698 -0.1033363,0.069963 -0.093024,0.062134 0.010312,-0.00783 -0.1026788,0.070764 -0.093024,0.062134 0.00965,-0.00863 -0.1019593,0.102577 -0.093024,0.093201 0.00894,-0.00937 -0.070175,0.1032626 -0.062016,0.093201 0.00816,-0.010062 -0.069347,0.1038839 -0.062016,0.093201 0.00733,-0.010682 -0.06847,0.1044366 -0.062016,0.093201 0.00645,-0.011236 -0.067554,0.1359847 -0.062016,0.1242684 0.00554,-0.011716 -0.066601,0.1053236 -0.062016,0.093201 0.00458,-0.012123 -0.034612,0.1367191 -0.031008,0.1242684 0.0036,-0.012451 -0.033607,0.1369679 -0.031008,0.1242685 0.0026,-0.012699 -0.032585,0.1371353 -0.031008,0.1242684 0.00158,-0.012867 -5.455e-4,0.1061533 0,0.093201 4.092e-4,-0.00971 2.696e-4,0.058331 0,0.093201 -8.99e-5,0.011624 1.224e-4,0.034306 0,0.031067 v 3.9144553 0.031067 c 5.816e-4,0.029383 3.993e-4,0.101385 0,0.093201 -5.323e-4,-0.010912 0.00126,0.1040522 0,0.093201 -0.00126,-0.010851 0.032999,0.1039422 0.031008,0.093201 -0.00199,-0.010741 0.033718,0.1037834 0.031008,0.093201 -0.00271,-0.010582 0.034423,0.1035764 0.031008,0.093201 -0.00341,-0.010375 0.035113,0.1033223 0.031008,0.093201 -0.00411,-0.01012 0.035785,0.103023 0.031008,0.0932 -0.00477,-0.0098 0.036434,0.102678 0.031008,0.0932 -0.00543,-0.0094 0.068067,0.10229 0.062016,0.0932 -0.00605,-0.009 0.068664,0.10186 0.062016,0.0932 -0.00665,-0.0086 0.069231,0.07033 0.062016,0.06213 -0.00721,-0.0082 0.069766,0.100886 0.062016,0.0932 -0.00775,-0.0077 0.101273,0.06928 0.093024,0.06213 -0.00825,-0.0072 0.070727,0.06871 0.062016,0.06213 -0.00871,-0.0066 0.1021568,0.0681 0.093024,0.06213 -0.00913,-0.006 0.1025374,0.03641 0.093024,0.03107 -0.00952,-0.0054 0.1028748,0.06682 0.093024,0.06213 -0.00985,-0.0047 0.1031673,0.03507 0.093024,0.03107 -0.010144,-0.004 0.1034139,0.03438 0.093024,0.03107 -0.01039,-0.0033 0.1036131,0.03367 0.093024,0.03107 -0.010589,-0.0026 0.1037642,0.03295 0.093024,0.03107 -0.01074,-0.0019 0.1038666,0.0012 0.093024,0 -0.010842,-0.0012 0.1039195,4.21e-4 0.093024,0 -0.010896,-4.2e-4 0.134931,-3.16e-4 0.1240317,0 -0.010899,3.16e-4 0.103877,-0.0011 0.093024,0 -0.010853,0.0011 0.1037816,-0.0018 0.093024,0 -0.010758,0.0018 0.1036374,-0.03357 0.093024,-0.03107 -0.010613,0.0025 0.1034448,-0.03428 0.093024,-0.03107 -0.010421,0.0032 0.103205,-0.03497 0.093024,-0.03107 -0.010181,0.0039 0.1029188,-0.03566 0.093024,-0.03107 -0.00989,0.0046 0.1025877,-0.03632 0.093024,-0.03107 -0.00957,0.0053 0.1022132,-0.06801 0.093024,-0.06213 a 0.98920171,0.99108973 0 0 0 0.031008,0 L 10.310104,8.7710886 c 0.0044,-0.00273 -0.0037,-0.02875 0,-0.031067 0.01101,-0.00695 0.03361,-0.00177 0.03101,0 -0.0086,0.00592 0.07028,-0.0686 0.06202,-0.062134 -0.0082,0.00646 0.100858,-0.069123 0.09302,-0.062134 -0.0078,0.00699 0.06938,-0.069617 0.06202,-0.062134 -0.0073,0.00749 0.06888,-0.070079 0.06202,-0.062134 -0.0068,0.00794 0.06836,-0.1015762 0.06202,-0.093201 -0.0064,0.00837 0.0678,-0.070904 0.06202,-0.062134 -0.0058,0.00877 0.06722,-0.1023273 0.06202,-0.093201 -0.0052,0.00913 0.03561,-0.102646 0.03101,-0.093201 -0.0046,0.00944 0.03499,-0.102925 0.03101,-0.093201 -0.004,0.00972 0.03435,-0.1031629 0.03101,-0.093201 -0.0034,0.00996 0.0337,-0.1033592 0.03101,-0.093201 -0.0027,0.010158 0.03303,-0.1035126 0.03101,-0.093201 -0.002,0.010311 0.0014,-0.1036227 0,-0.093201 -0.0014,0.010422 0.03169,-0.1036889 0.03101,-0.093201 -6.8e-4,0.010487 0,-0.1037111 0,-0.093201 0,0.01051 -6.8e-4,-0.1036888 0,-0.093201 6.8e-4,0.010488 -0.03236,-0.1036226 -0.03101,-0.093201 0.0014,0.010422 -0.002,-0.1035126 0,-0.093201 0.002,0.010311 -0.0337,-0.1033592 -0.03101,-0.093201 0.0027,0.010158 -0.03435,-0.103163 -0.03101,-0.093201 0.0034,0.00996 -0.03499,-0.102925 -0.03101,-0.093201 0.004,0.00972 -0.03561,-0.102646 -0.03101,-0.093201 0.0046,0.00944 -0.03621,-0.1023273 -0.03101,-0.093201 0.0052,0.00913 -0.0678,-0.1019702 -0.06202,-0.093201 0.0058,0.00877 -0.06836,-0.070509 -0.06202,-0.062134 0.0064,0.00837 -0.06888,-0.1011469 -0.06202,-0.093201 0.0068,0.00794 -0.06938,-0.069617 -0.06202,-0.062134 0.0073,0.00749 -0.06984,-0.069123 -0.06202,-0.062134 0.0078,0.00699 -0.101293,-0.068599 -0.09302,-0.062134 0.0082,0.00646 -0.07069,-0.068048 -0.06202,-0.062134 0.0026,0.00177 -0.01999,0.00695 -0.03101,0 -0.0037,-0.00232 0.0044,-0.02833 0,-0.031067 L 7.33334,4.2353205 a 0.98920171,0.99108973 0 0 0 -0.031008,0 c 0.01323,0.0081 -0.1379753,-0.068931 -0.1240317,-0.062134 0.013944,0.0068 -0.1695688,-0.067562 -0.1550396,-0.062134 0.01453,0.00543 -0.1390128,-0.066144 -0.1240317,-0.062134 0.014981,0.00401 -0.1703351,-0.033621 -0.1550396,-0.031067 0.015296,0.00256 -0.139501,-0.00107 -0.1240317,0 0.015469,0.00107 -0.1705406,4.139e-4 -0.1550396,0 0.011626,-3.103e-4 -0.051413,-0.00283 -0.093024,0 0.00996,0 -0.10296,6.137e-4 -0.093023,-8e-7 z"
     id="path4152"
     style="opacity:0.07;fill:#7a0000;fill-opacity:1;fill-rule:evenodd;stroke:none;stroke-width:0.9932" />
  <path
     d="M 6.4031023,5.0119981 A 0.50399129,0.50495323 0 0 0 5.9999993,5.5090718 V 9.4856613 A 0.50399129,0.50495323 0 0 0 6.7751974,9.9206008 L 9.7519579,7.932306 a 0.50399129,0.50495323 0 0 0 0,-0.8698789 L 6.7751974,5.0741323 A 0.50399129,0.50495323 0 0 0 6.4031023,5.0119981 Z"
     id="path4114"
     style="opacity:0.15;fill:#7a0000;fill-opacity:1;fill-rule:evenodd;stroke:none;stroke-width:0.9932" />
  <path
     d="m 6.4031024,4.0119981 a 0.50399129,0.50495323 0 0 0 -0.403103,0.4970737 v 3.9765895 a 0.50399129,0.50495323 0 0 0 0.775198,0.4349395 L 9.751958,6.932306 a 0.50399129,0.50495323 0 0 0 0,-0.8698789 L 6.7751974,4.0741323 a 0.50399129,0.50495323 0 0 0 -0.372095,-0.062134 z"
     id="path4114-4"
     style="fill:#fafafa;fill-opacity:1;fill-rule:evenodd;stroke:none;stroke-width:0.9932" />
  <rect
     width="11"
     height="11"
     x="2.5"
     y="2.4999969"
     id="rect6741-0-3-5"
     style="opacity:0.3;fill:none;stroke:url(#linearGradient3304);stroke-width:1;stroke-linecap:round;stroke-linejoin:round;stroke-miterlimit:4;stroke-dasharray:none;stroke-dashoffset:0;stroke-opacity:1"
     rx="1"
     ry="1" />
</svg>
