<?xml version="1.0" encoding="UTF-8" standalone="no"?>
<svg
   version="1.1"
   width="32"
   height="32"
   id="svg6860"
   xmlns:xlink="http://www.w3.org/1999/xlink"
   xmlns="http://www.w3.org/2000/svg"
   xmlns:svg="http://www.w3.org/2000/svg"
   xmlns:rdf="http://www.w3.org/1999/02/22-rdf-syntax-ns#"
   xmlns:cc="http://creativecommons.org/ns#"
   xmlns:dc="http://purl.org/dc/elements/1.1/">
  <defs
     id="defs6862">
    <linearGradient
       id="linearGradient3924-0">
      <stop
         id="stop3926-6"
         style="stop-color:#ffffff;stop-opacity:1"
         offset="0" />
      <stop
         id="stop3928-3"
         style="stop-color:#ffffff;stop-opacity:0.23529412"
         offset="0.04166666" />
      <stop
         id="stop3930-2"
         style="stop-color:#ffffff;stop-opacity:0.15686275"
         offset="0.95833325" />
      <stop
         id="stop3932-62"
         style="stop-color:#ffffff;stop-opacity:0.39215687"
         offset="1" />
    </linearGradient>
    <linearGradient
       id="linearGradient3688-166-749-6">
      <stop
         id="stop2883-8"
         style="stop-color:#181818;stop-opacity:1"
         offset="0" />
      <stop
         id="stop2885-3"
         style="stop-color:#181818;stop-opacity:0"
         offset="1" />
    </linearGradient>
    <linearGradient
       id="linearGradient3702-501-757-3">
      <stop
         id="stop2895-3"
         style="stop-color:#181818;stop-opacity:0"
         offset="0" />
      <stop
         id="stop2897-28"
         style="stop-color:#181818;stop-opacity:1"
         offset="0.5" />
      <stop
         id="stop2899-8"
         style="stop-color:#181818;stop-opacity:0"
         offset="1" />
    </linearGradient>
    <radialGradient
       cx="4.9929786"
       cy="43.5"
       r="2.5"
       fx="4.9929786"
       fy="43.5"
       id="radialGradient2976-3-3"
       xlink:href="#linearGradient3688-166-749-6"
       gradientUnits="userSpaceOnUse"
       gradientTransform="matrix(2.003784,0,0,1.4,27.98813,-17.4)" />
    <radialGradient
       cx="4.9929786"
       cy="43.5"
       r="2.5"
       fx="4.9929786"
       fy="43.5"
       id="radialGradient2978-2-5"
       xlink:href="#linearGradient3688-166-749-6"
       gradientUnits="userSpaceOnUse"
       gradientTransform="matrix(2.003784,0,0,1.4,-20.01187,-104.4)" />
    <linearGradient
       xlink:href="#linearGradient854"
       id="linearGradient930-9-2"
       x1="16.767664"
       y1="2.7676599"
       x2="16.767664"
       y2="29.896721"
       gradientUnits="userSpaceOnUse"
       gradientTransform="translate(4.1936035e-6)" />
    <linearGradient
       x1="23.99999"
       y1="6.2399855"
       x2="23.99999"
       y2="41.759987"
       id="linearGradient4161-0-2"
       xlink:href="#linearGradient3924-0"
       gradientUnits="userSpaceOnUse"
       gradientTransform="matrix(0.67567568,0,0,0.67567568,-0.21621281,-0.21620614)" />
    <linearGradient
       xlink:href="#linearGradient3702-501-757-3"
       id="linearGradient963"
       gradientUnits="userSpaceOnUse"
       x1="25.058096"
       y1="47.027729"
       x2="25.058096"
       y2="39.999443" />
    <linearGradient
       id="linearGradient4215-8-4-07-7">
      <stop
         style="stop-color:#2b3235;stop-opacity:1"
         offset="0"
         id="stop4217-1-2-1-2" />
      <stop
         style="stop-color:#374044;stop-opacity:1"
         offset="1"
         id="stop4219-3-4-0-96" />
    </linearGradient>
    <linearGradient
       xlink:href="#linearGradient4011-9-9-70-61-7"
       id="linearGradient14699"
       gradientUnits="userSpaceOnUse"
       gradientTransform="matrix(-0.03742203,0,0,0.03742203,13.612308,25.165365)"
       x1="71.204407"
       y1="6.2375584"
       x2="71.204407"
       y2="44.340794" />
    <linearGradient
       id="linearGradient4011-9-9-70-61-7">
      <stop
         id="stop4013-5-4-3-8-3"
         style="stop-color:#ffffff;stop-opacity:1;"
         offset="0" />
      <stop
         offset="0.507761"
         style="stop-color:#ffffff;stop-opacity:0.23529412;"
         id="stop4015-1-5-70-9-5" />
      <stop
         id="stop4017-7-0-13-0-1"
         style="stop-color:#ffffff;stop-opacity:0.15686275;"
         offset="0.83456558" />
      <stop
         id="stop4019-1-12-7-0-7"
         style="stop-color:#ffffff;stop-opacity:0.39215687;"
         offset="1" />
    </linearGradient>
    <linearGradient
       xlink:href="#linearGradient4215-8-4-07-7"
       id="linearGradient14702"
       gradientUnits="userSpaceOnUse"
       gradientTransform="matrix(-0.05429864,0,0,0.05429864,12.622173,24.203227)"
       x1="38.976662"
       y1="59.967686"
       x2="38.976662"
       y2="8.0928917" />
    <linearGradient
       id="linearGradient854-7">
      <stop
         style="stop-color:#4d4d4d;stop-opacity:1"
         offset="0"
         id="stop850-3" />
      <stop
         style="stop-color:#333333;stop-opacity:1"
         offset="1"
         id="stop852-6" />
    </linearGradient>
    <linearGradient
       id="linearGradient854">
      <stop
         style="stop-color:#ed5353;stop-opacity:1"
         offset="0"
         id="stop850" />
      <stop
         style="stop-color:#c6262e;stop-opacity:1"
         offset="1"
         id="stop852" />
    </linearGradient>
    <linearGradient
       xlink:href="#linearGradient854-7"
       id="linearGradient2063"
       gradientUnits="userSpaceOnUse"
       gradientTransform="matrix(0.6923077,0,0,0.6923077,-41.616529,-1.3076923)"
       x1="82.625305"
       y1="5.9997969"
       x2="82.625305"
       y2="43.779068" />
    <linearGradient
       xlink:href="#linearGradient3924-0"
       id="linearGradient2248"
       gradientUnits="userSpaceOnUse"
       gradientTransform="matrix(0.67567568,0,0,0.67567568,-0.21621281,-0.21620614)"
       x1="23.99999"
       y1="6.2399855"
       x2="23.99999"
       y2="41.759987" />
  </defs>
  <metadata
     id="metadata6865">
    <rdf:RDF>
      <cc:Work
         rdf:about="">
        <dc:format>image/svg+xml</dc:format>
        <dc:type
           rdf:resource="http://purl.org/dc/dcmitype/StillImage" />
      </cc:Work>
    </rdf:RDF>
  </metadata>
  <g
     style="display:inline"
     id="g2036-2-8-6"
     transform="matrix(0.6999997,0,0,0.3333336,-0.79999581,15.33333)">
    <g
       style="opacity:0.4"
       id="g3712-3-7-0"
       transform="matrix(1.052632,0,0,1.285713,-1.263158,-13.42854)">
      <rect
         style="fill:url(#radialGradient2976-3-3);fill-opacity:1;stroke:none"
         id="rect2801-0-9-6"
         y="40"
         x="38"
         height="7"
         width="5" />
      <rect
         style="fill:url(#radialGradient2978-2-5);fill-opacity:1;stroke:none"
         id="rect3696-2-2-2"
         transform="scale(-1)"
         y="-47"
         x="-10"
         height="7"
         width="5" />
      <rect
         style="fill:url(#linearGradient963);fill-opacity:1;stroke:none"
         id="rect3700-1-0-6"
         y="40"
         x="10"
         height="7.0000005"
         width="28" />
    </g>
  </g>
  <path
     id="rect5505-21-1-2-1"
     style="color:#000000;font-variation-settings:normal;display:inline;overflow:visible;visibility:visible;opacity:1;vector-effect:none;fill:url(#linearGradient930-9-2);fill-opacity:1;fill-rule:nonzero;stroke:#7a0000;stroke-width:1;stroke-linecap:butt;stroke-linejoin:miter;stroke-miterlimit:4;stroke-dasharray:none;stroke-dashoffset:0;stroke-opacity:0.5;marker:none;enable-background:accumulate;stop-color:#000000;stop-opacity:1"
     d="m 29.5,23.5 v -18 c 0,-1.6619983 -1.338002,-3 -3,-3 h -21 c -1.6619983,0 -3,1.3380017 -3,3 v 18" />
  <path
     id="rect5505-21-1-2-1-7"
     style="color:#000000;font-variation-settings:normal;display:inline;overflow:visible;visibility:visible;opacity:1;vector-effect:none;fill:url(#linearGradient2063);fill-opacity:1;fill-rule:nonzero;stroke:#000000;stroke-width:0.999997;stroke-linecap:butt;stroke-linejoin:miter;stroke-miterlimit:4;stroke-dasharray:none;stroke-dashoffset:0;stroke-opacity:0.5;-inkscape-stroke:none;marker:none;enable-background:accumulate;stop-color:#000000;stop-opacity:1"
     d="m 2.5,23.5 v 3 c 0,1.661998 1.3380017,3 3,3 h 21 c 1.661998,0 3,-1.338002 3,-3 v -3 z" />
  <path
     id="rect6741-7-4-3-8"
     style="opacity:0.35;fill:none;stroke:url(#linearGradient4161-0-2);stroke-width:1;stroke-linecap:round;stroke-linejoin:round;stroke-miterlimit:4;stroke-dasharray:none;stroke-dashoffset:0;stroke-opacity:1"
     d="m 5.5,3.5 c -1.1079989,0 -2,0.8920011 -2,2 v 17 h 25 v -17 c 0,-1.1079989 -0.892001,-2 -2,-2 z" />
  <path
     d="m 12.499791,8.977 c 0.01495,4.33e-5 -0.139849,0.032499 -0.124947,0.031221 0.0089,-7.66e-4 -0.05153,-0.0054 -0.09371,0 -0.02082,-6.43e-4 -0.04165,-6.43e-4 -0.06247,0 -0.06331,0.0045 -0.126067,0.01496 -0.187422,0.03122 0.01294,-0.0043 -0.137499,0.0678 -0.124948,0.06244 0.01256,-0.0054 -0.105789,0.03757 -0.09371,0.03122 0.01208,-0.0063 -0.136475,0.06974 -0.124948,0.06244 0.01153,-0.0073 -0.104611,0.10187 -0.09371,0.09366 0.0109,-0.0082 -0.103913,0.0715 -0.09371,0.06244 0.01021,-0.0091 -0.10315,0.103515 -0.09371,0.09366 0.0094,-0.0099 -0.102324,0.104244 -0.09371,0.09366 0.0086,-0.01058 -0.0702,0.104904 -0.06247,0.09366 0.0077,-0.01124 -0.06927,0.10549 -0.06247,0.09366 0.0068,-0.01183 -0.06829,0.13722 -0.06247,0.124885 0.0058,-0.01234 -0.03604,0.106429 -0.03124,0.09366 0.0048,-0.01277 -0.035,0.137996 -0.03124,0.124885 0.0038,-0.01311 -0.03393,0.138256 -0.03124,0.124885 0.0027,-0.01337 -0.03285,0.13843 -0.03124,0.124885 0.0016,-0.01355 -5.06e-4,0.107294 0,0.09366 3.8e-4,-0.01022 9.2e-5,0.05802 0,0.09366 -3.1e-5,0.01188 1.49e-4,0.03463 0,0.03122 v 8.960505 c -5.4e-5,-0.01096 7.64e-4,0.104596 0,0.09366 -7.63e-4,-0.01093 0.0015,0.104524 0,0.09366 -0.0015,-0.01086 0.03341,0.135626 0.03124,0.124885 -0.0022,-0.01074 0.0029,0.104242 0,0.09366 -0.0029,-0.01058 0.03479,0.104034 0.03124,0.09366 -0.0035,-0.01037 0.03545,0.103783 0.03124,0.09366 -0.0042,-0.01012 0.06733,0.07226 0.06247,0.06244 -0.0049,-0.0098 0.03672,0.103153 0.03124,0.09366 -0.0055,-0.0095 0.06856,0.102778 0.06247,0.09366 -0.0061,-0.0091 0.06914,0.07115 0.06247,0.06244 -0.0067,-0.0087 0.06969,0.101914 0.06247,0.09366 -0.0072,-0.0083 0.07021,0.0702 0.06247,0.06244 -0.0077,-0.0078 0.0707,0.0697 0.06247,0.06244 -0.0082,-0.0073 0.07115,0.06915 0.06247,0.06244 -0.0087,-0.0067 0.102804,0.06857 0.09371,0.06244 -0.0091,-0.0061 0.103182,0.06797 0.09371,0.06244 -0.0095,-0.0055 0.07228,0.03612 0.06247,0.03122 -0.0098,-0.0049 0.103816,0.0667 0.09371,0.06244 -0.0101,-0.0043 0.104072,0.03481 0.09371,0.03122 -0.01037,-0.0036 0.104283,0.03413 0.09371,0.03122 -0.01058,-0.0029 0.104448,0.0022 0.09371,0 -0.01074,-0.0022 0.104569,0.03274 0.09371,0.03122 -0.01086,-0.0015 0.135882,8.1e-4 0.124947,0 -0.01093,-8.1e-4 0.104675,10e-5 0.09371,0 -0.01097,-10e-5 0.104659,-6.1e-4 0.09371,0 -0.01095,6.1e-4 0.104595,-0.0013 0.09371,0 -0.01089,0.0013 0.104487,-0.002 0.09371,0 -0.01078,0.002 0.104333,-0.03394 0.09371,-0.03122 -0.01063,0.0027 0.104135,-0.03462 0.09371,-0.03122 -0.01042,0.0034 0.103893,-0.03529 0.09371,-0.03122 -0.01019,0.0041 0.103608,-0.03594 0.09371,-0.03122 -0.0099,0.0047 0.103281,-0.06779 0.09371,-0.06244 l 7.996656,-4.495863 c -0.0096,0.0055 0.102967,-0.06858 0.09371,-0.06244 -0.0093,0.0061 0.07131,-0.03794 0.06247,-0.03122 -0.0088,0.0067 0.102084,-0.06973 0.09371,-0.06244 -0.0084,0.0073 0.07035,-0.101489 0.06247,-0.09366 -0.0079,0.0078 0.06982,-0.07077 0.06247,-0.06244 -0.0073,0.0083 0.06925,-0.07123 0.06247,-0.06244 -0.0068,0.0088 0.06866,-0.102878 0.06247,-0.09366 -0.0062,0.0092 0.06804,-0.103265 0.06247,-0.09366 -0.0056,0.0096 0.03616,-0.07239 0.03124,-0.06244 -0.0049,0.01 0.06674,-0.103912 0.06247,-0.09366 -0.0043,0.01025 0.03482,-0.104169 0.03124,-0.09366 -0.0036,0.01051 0.03413,-0.104382 0.03124,-0.09366 -0.0029,0.01072 0.03342,-0.135769 0.03124,-0.124885 -0.0022,0.01088 0.0015,-0.104667 0,-0.09366 -0.0015,0.011 7.29e-4,-0.104738 0,-0.09366 -7.29e-4,0.01107 0,-0.104763 0,-0.09366 0,0.0111 -7.29e-4,-0.104739 0,-0.09366 7.29e-4,0.01107 -0.0015,-0.104667 0,-0.09366 0.0015,0.011 -0.0022,-0.104548 0,-0.09366 0.0022,0.01088 -0.03413,-0.135603 -0.03124,-0.124885 0.0029,0.01072 -0.03482,-0.104169 -0.03124,-0.09366 0.0036,0.0105 -0.03551,-0.103911 -0.03124,-0.09366 0.0043,0.01025 -0.0674,-0.10361 -0.06247,-0.09366 0.0049,0.01 -0.0368,-0.07204 -0.03124,-0.06244 0.0056,0.0096 -0.06866,-0.102878 -0.06247,-0.09366 0.0062,0.0092 -0.06925,-0.102452 -0.06247,-0.09366 0.0068,0.0088 -0.06982,-0.07076 -0.06247,-0.06244 0.0073,0.0083 -0.07035,-0.07026 -0.06247,-0.06244 0.0079,0.0078 -0.07085,-0.100955 -0.06247,-0.09366 0.0084,0.0073 -0.102544,-0.06917 -0.09371,-0.06244 0.0088,0.0067 -0.07173,-0.03736 -0.06247,-0.03122 0.0093,0.0061 -0.103348,-0.06796 -0.09371,-0.06244 L 13.249453,9.195555 c 0.01287,0.0076 -0.107208,-0.06888 -0.09371,-0.06244 0.01349,0.0064 -0.138962,-0.06766 -0.124948,-0.06244 0.01401,0.0052 -0.139369,-0.03519 -0.124948,-0.03122 0.01442,0.004 -0.170899,-0.0339 -0.156184,-0.03122 0.01471,0.0027 -0.139842,-0.0014 -0.124948,0 0.01489,0.0014 -0.139903,-0.031264 -0.124948,-0.031221 z"
     id="path4057"
     style="font-variation-settings:normal;opacity:0.15;vector-effect:none;fill:#7a0000;fill-opacity:1;fill-rule:evenodd;stroke:none;stroke-width:1;stroke-linecap:butt;stroke-linejoin:miter;stroke-miterlimit:4;stroke-dasharray:none;stroke-dashoffset:0;stroke-opacity:1;-inkscape-stroke:none;marker:none;stop-color:#000000;stop-opacity:1" />
  <path
     d="M 12.40608,10.007302 C 12.168025,10.054347 11.99734,10.264315 12,10.506842 v 8.991727 c 0.0019,0.383475 0.414795,0.624225 0.749687,0.437098 l 7.996656,-4.495864 c 0.338169,-0.193385 0.338169,-0.68081 0,-0.874195 l -7.996656,-4.495863 c -0.103424,-0.06109 -0.225286,-0.08324 -0.343607,-0.06244 z"
     id="path4010-5"
     style="font-variation-settings:normal;opacity:0.3;vector-effect:none;fill:#7a0000;fill-opacity:1;fill-rule:evenodd;stroke:none;stroke-width:1;stroke-linecap:butt;stroke-linejoin:miter;stroke-miterlimit:4;stroke-dasharray:none;stroke-dashoffset:0;stroke-opacity:1;-inkscape-stroke:none;marker:none;stop-color:#000000;stop-opacity:1" />
  <path
     d="M 12.40608,9.0073019 C 12.168025,9.0543469 11.99734,9.2643149 12,9.5068429 v 8.9917261 c 0.0019,0.383475 0.414795,0.624225 0.749686,0.437098 l 7.996656,-4.495863 c 0.33817,-0.193385 0.33817,-0.680811 0,-0.874196 L 12.749686,9.0697449 c -0.103423,-0.06109 -0.225285,-0.083244 -0.343606,-0.06244 z"
     id="path4010"
     style="fill:#fafafa;fill-opacity:1;fill-rule:evenodd;stroke:none" />
  <path
     id="path4010-56"
     style="fill:#7a0000;fill-opacity:1;fill-rule:evenodd;stroke:none;font-variation-settings:normal;opacity:0.15;vector-effect:none;stroke-width:0.999997;stroke-linecap:butt;stroke-linejoin:miter;stroke-miterlimit:4;stroke-dasharray:none;stroke-dashoffset:0;stroke-opacity:1;-inkscape-stroke:none;marker:none;stop-color:#000000;stop-opacity:1"
     d="M 20.632812 13.503906 L 12.75 17.935547 C 12.415109 18.122674 12.0019 17.881521 12 17.498047 L 12 18.498047 C 12.0019 18.881521 12.415109 19.122674 12.75 18.935547 L 20.746094 14.439453 C 21.084263 14.246068 21.084263 13.759791 20.746094 13.566406 L 20.632812 13.503906 z " />
  <rect
     style="opacity:0.05;fill:#ffffff;fill-opacity:1;stroke:none;stroke-width:2;stroke-linecap:round;stroke-linejoin:round;stroke-miterlimit:4;stroke-dasharray:none;stroke-opacity:1"
     id="rect10944"
     width="22"
     height="1"
     x="5"
     y="26"
     ry="0.25"
     rx="0.25" />
  <rect
     ry="0.46273783"
     y="25"
     x="5"
     height="1"
     width="22"
     id="rect4497-7"
     style="opacity:0.4;fill:#000000;fill-opacity:1;stroke:none;stroke-width:2;stroke-linecap:round;stroke-linejoin:round;stroke-miterlimit:4;stroke-dasharray:none;stroke-opacity:1"
     rx="0.46273786" />
  <path
     style="color:#000000;display:inline;overflow:visible;visibility:visible;fill:url(#linearGradient14702);fill-opacity:1;fill-rule:nonzero;stroke:none;stroke-width:0.999997;marker:none;enable-background:accumulate"
     id="path2555-7-1-9-4"
     d="m 10.884616,24.664765 c 0.763984,0 1.384615,0.620632 1.384615,1.384615 0,0.763984 -0.620631,1.384616 -1.384615,1.384616 -0.763983,0 -1.3846172,-0.620632 -1.3846152,-1.384616 0,-0.763983 0.6206322,-1.384615 1.3846152,-1.384615 z" />
  <path
     style="color:#000000;display:inline;overflow:visible;visibility:visible;opacity:0.15;fill:none;stroke:url(#linearGradient14699);stroke-width:0.999997;stroke-linecap:round;stroke-linejoin:round;stroke-miterlimit:4;stroke-dasharray:none;stroke-dashoffset:0;stroke-opacity:1;marker:none;enable-background:accumulate"
     id="path8655-6-0-5-2"
     d="m 10.235587,26.114259 c 0,0.382364 0.30998,0.692333 0.692298,0.692333 0.382355,0 0.692317,-0.309973 0.692317,-0.692333 0,-0.382345 -0.309962,-0.692283 -0.692317,-0.692283 -0.382318,0 -0.692298,0.309938 -0.692298,0.692283 z" />
  <path
     style="color:#000000;display:inline;overflow:visible;visibility:visible;fill:none;stroke:#242424;stroke-width:0.999997;stroke-linecap:round;stroke-linejoin:round;stroke-miterlimit:4;stroke-dasharray:none;stroke-dashoffset:0;stroke-opacity:1;marker:none;enable-background:accumulate"
     id="path2555-7-1-9-9-41"
     d="m 10.884616,24.664765 c 0.763984,0 1.384615,0.620632 1.384615,1.384615 0,0.763984 -0.620631,1.384616 -1.384615,1.384616 -0.763983,0 -1.3846172,-0.620632 -1.3846152,-1.384616 0,-0.763983 0.6206322,-1.384615 1.3846152,-1.384615 z" />
  <path
     id="rect6741-7-4-3-8-6"
     style="opacity:0.2;fill:none;stroke:url(#linearGradient2248);stroke-width:1;stroke-linecap:round;stroke-linejoin:round;stroke-miterlimit:4;stroke-dasharray:none;stroke-dashoffset:0;stroke-opacity:1"
     d="m 3.5,24.5 v 2 c 0,1.107999 0.8920011,2 2,2 h 21 c 1.107999,0 2,-0.892001 2,-2 v -2" />
</svg>
