<?xml version="1.0" encoding="UTF-8" standalone="no"?>
<svg
   version="1.1"
   width="48"
   height="48"
   id="svg6649"
   xml:space="preserve"
   xmlns:xlink="http://www.w3.org/1999/xlink"
   xmlns="http://www.w3.org/2000/svg"
   xmlns:svg="http://www.w3.org/2000/svg"
   xmlns:rdf="http://www.w3.org/1999/02/22-rdf-syntax-ns#"
   xmlns:cc="http://creativecommons.org/ns#"
   xmlns:dc="http://purl.org/dc/elements/1.1/"><defs
     id="defs6651"><linearGradient
       id="linearGradient2440"><stop
         id="stop2432"
         style="stop-color:#ffffff;stop-opacity:1"
         offset="0" /><stop
         id="stop2434"
         style="stop-color:#ffffff;stop-opacity:0.23529412"
         offset="0.0915831" /><stop
         id="stop2436"
         style="stop-color:#ffffff;stop-opacity:0.15686275"
         offset="0.93180752" /><stop
         id="stop2438"
         style="stop-color:#ffffff;stop-opacity:0.39215687"
         offset="1" /></linearGradient><linearGradient
       id="linearGradient1201"><stop
         id="stop1193"
         style="stop-color:#ffffff;stop-opacity:1"
         offset="0" /><stop
         id="stop1195"
         style="stop-color:#ffffff;stop-opacity:0.23529412"
         offset="0.06781636" /><stop
         id="stop1197"
         style="stop-color:#ffffff;stop-opacity:0.15686275"
         offset="0.94694352" /><stop
         id="stop1199"
         style="stop-color:#ffffff;stop-opacity:0.39215687"
         offset="1" /></linearGradient><linearGradient
       id="linearGradient854"><stop
         style="stop-color:#ed5353;stop-opacity:1"
         offset="0"
         id="stop850" /><stop
         style="stop-color:#c6262e;stop-opacity:1"
         offset="1"
         id="stop852" /></linearGradient><linearGradient
       id="linearGradient3688-166-749"><stop
         id="stop2883"
         style="stop-color:#181818;stop-opacity:1"
         offset="0" /><stop
         id="stop2885"
         style="stop-color:#181818;stop-opacity:0"
         offset="1" /></linearGradient><linearGradient
       id="linearGradient3702-501-757"><stop
         id="stop2895"
         style="stop-color:#181818;stop-opacity:0"
         offset="0" /><stop
         id="stop2897"
         style="stop-color:#181818;stop-opacity:1"
         offset="0.5" /><stop
         id="stop2899"
         style="stop-color:#181818;stop-opacity:0"
         offset="1" /></linearGradient><radialGradient
       cx="4.9929786"
       cy="43.5"
       r="2.5"
       fx="4.9929786"
       fy="43.5"
       id="radialGradient3013-6"
       xlink:href="#linearGradient3688-166-749"
       gradientUnits="userSpaceOnUse"
       gradientTransform="matrix(2.003784,0,0,0.89999994,29.98813,4.8500025)" /><radialGradient
       cx="4.9929786"
       cy="43.5"
       r="2.5"
       fx="4.9929786"
       fy="43.5"
       id="radialGradient3015-1"
       xlink:href="#linearGradient3688-166-749"
       gradientUnits="userSpaceOnUse"
       gradientTransform="matrix(2.003784,0,0,0.89999994,-18.01187,-83.149997)" /><linearGradient
       xlink:href="#linearGradient854"
       id="linearGradient856-2"
       x1="23.528315"
       y1="6.08318"
       x2="23.528315"
       y2="44.23307"
       gradientUnits="userSpaceOnUse" /><linearGradient
       x1="38.999996"
       y1="5.9999938"
       x2="38.999996"
       y2="41.945408"
       id="linearGradient3058-5"
       xlink:href="#linearGradient1201"
       gradientUnits="userSpaceOnUse"
       gradientTransform="translate(4e-6,1.0000062)" /><linearGradient
       xlink:href="#linearGradient3702-501-757"
       id="linearGradient1191"
       gradientUnits="userSpaceOnUse"
       x1="25.058096"
       y1="47.027729"
       x2="25.058096"
       y2="39.999443"
       gradientTransform="matrix(1.1428571,0,0,0.6428571,-3.428569,16.035716)" /><linearGradient
       id="linearGradient4215-8-4-07-7"><stop
         style="stop-color:#2b3235;stop-opacity:1"
         offset="0"
         id="stop4217-1-2-1-2" /><stop
         style="stop-color:#374044;stop-opacity:1"
         offset="1"
         id="stop4219-3-4-0-96" /></linearGradient><linearGradient
       xlink:href="#linearGradient4215-8-4-07-7"
       id="linearGradient14702"
       gradientUnits="userSpaceOnUse"
       gradientTransform="matrix(-0.07843137,0,0,0.07843137,19.009804,36.849105)"
       x1="38.976662"
       y1="59.967686"
       x2="38.976662"
       y2="8.0928917" /><linearGradient
       xlink:href="#linearGradient4011-9-9-70-61-7"
       id="linearGradient14699"
       gradientUnits="userSpaceOnUse"
       gradientTransform="matrix(-0.05405404,0,0,0.05405404,20.44,38.23886)"
       x1="71.204407"
       y1="6.2375584"
       x2="71.204407"
       y2="44.340794" /><linearGradient
       id="linearGradient4011-9-9-70-61-7"><stop
         id="stop4013-5-4-3-8-3"
         style="stop-color:#ffffff;stop-opacity:1;"
         offset="0" /><stop
         offset="0.507761"
         style="stop-color:#ffffff;stop-opacity:0.23529412;"
         id="stop4015-1-5-70-9-5" /><stop
         id="stop4017-7-0-13-0-1"
         style="stop-color:#ffffff;stop-opacity:0.15686275;"
         offset="0.83456558" /><stop
         id="stop4019-1-12-7-0-7"
         style="stop-color:#ffffff;stop-opacity:0.39215687;"
         offset="1" /></linearGradient><linearGradient
       xlink:href="#linearGradient854-7"
       id="linearGradient856-2-9"
       x1="23.528315"
       y1="6.08318"
       x2="23.528315"
       y2="44.23307"
       gradientUnits="userSpaceOnUse" /><linearGradient
       id="linearGradient854-7"><stop
         style="stop-color:#4d4d4d;stop-opacity:1"
         offset="0"
         id="stop850-3" /><stop
         style="stop-color:#333333;stop-opacity:1"
         offset="1"
         id="stop852-6" /></linearGradient><linearGradient
       xlink:href="#linearGradient2440"
       id="linearGradient2325"
       gradientUnits="userSpaceOnUse"
       gradientTransform="translate(4e-6,1.0000062)"
       x1="38.999996"
       y1="6.0751491"
       x2="38.999996"
       y2="41.945408" /></defs><metadata
     id="metadata6654"><rdf:RDF><cc:Work
         rdf:about=""><dc:format>image/svg+xml</dc:format><dc:type
           rdf:resource="http://purl.org/dc/dcmitype/StillImage" /></cc:Work></rdf:RDF></metadata><rect
     style="opacity:0.6;fill:url(#linearGradient1191);fill-opacity:1;stroke:none;stroke-width:0.862764"
     id="rect3700-4-6"
     y="41.75"
     x="8"
     height="4.5"
     width="32" /><rect
     style="opacity:0.6;fill:url(#radialGradient3013-6);fill-opacity:1;stroke:none;stroke-width:0.862764"
     id="rect2801-3-7"
     y="41.75"
     x="40"
     height="4.4999995"
     width="5" /><rect
     style="opacity:0.6;fill:url(#radialGradient3015-1);fill-opacity:1;stroke:none;stroke-width:0.862764"
     id="rect3696-6-3"
     transform="scale(-1)"
     y="-46.25"
     x="-8"
     height="4.4999995"
     width="5" /><path
     id="rect5505-21-1"
     style="color:#000000;display:inline;overflow:visible;visibility:visible;opacity:1;fill:url(#linearGradient856-2);fill-opacity:1;fill-rule:nonzero;stroke:#7a0000;stroke-width:1;stroke-opacity:0.5;marker:none;enable-background:accumulate"
     d="M 43.5,36 V 9.5 c 0,-2.2159978 -1.784002,-4 -4,-4 h -31 c -2.2159978,0 -4,1.7840022 -4,4 V 36" /><path
     id="rect6741-2"
     style="opacity:0.35;fill:none;stroke:url(#linearGradient3058-5);stroke-width:1;stroke-linecap:round;stroke-linejoin:round;stroke-miterlimit:4;stroke-dasharray:none;stroke-dashoffset:0;stroke-opacity:1"
     d="m 42.5,34.5 v -25 c 0,-1.6619983 -1.338002,-3 -3,-3 h -31 c -1.6619983,0 -3,1.3380017 -3,3 v 25 z" /><path
     id="path980-5-5"
     style="font-variation-settings:normal;opacity:0.15;vector-effect:none;fill:#7a0000;fill-opacity:1;stroke:none;stroke-width:1;stroke-linecap:butt;stroke-linejoin:miter;stroke-miterlimit:4;stroke-dasharray:none;stroke-dashoffset:0;stroke-opacity:1;-inkscape-stroke:none;marker:none;stop-color:#000000"
     d="m 18.619141,16.998047 c -0.898894,0 -1.621094,0.760592 -1.621094,1.638672 v 12.726562 c 0,0.87808 0.7222,1.638672 1.621094,1.638672 0.316444,0 0.583889,-0.105855 0.759765,-0.201172 l 11.757813,-6.359375 0.002,-0.002 C 31.639331,26.169346 32.001953,25.625738 32.001953,25 c 0,-0.625738 -0.362613,-1.169344 -0.863281,-1.439453 L 19.380859,17.199219 h -0.002 c -0.175942,-0.09534 -0.44334,-0.201172 -0.759765,-0.201172 z"
     transform="translate(0,-2.000047)" /><path
     d="m 18.618929,15.999953 c -0.341889,0 -0.619038,0.28491 -0.619038,0.636364 V 29.36359 c 0,0.351454 0.277149,0.636363 0.619038,0.636363 0.104325,0 0.197936,-0.03273 0.284137,-0.07954 l 11.759485,-6.362399 c 0.197741,-0.106243 0.33734,-0.312811 0.33734,-0.558061 0,-0.245249 -0.139599,-0.451818 -0.33734,-0.55806 L 18.903066,16.079499 c -0.08623,-0.04682 -0.179855,-0.07954 -0.284137,-0.07954 z"
     style="font-variation-settings:normal;opacity:0.3;vector-effect:none;fill:#7a0000;fill-opacity:1;stroke:none;stroke-width:1;stroke-linecap:butt;stroke-linejoin:miter;stroke-miterlimit:4;stroke-dasharray:none;stroke-dashoffset:0;stroke-opacity:1;-inkscape-stroke:none;marker:none;stop-color:#000000"
     id="path980-5" /><path
     d="m 18.618929,14.999995 c -0.341889,0 -0.619038,0.28491 -0.619038,0.636364 v 12.727273 c 0,0.351454 0.277149,0.636363 0.619038,0.636363 0.104325,0 0.197936,-0.03273 0.284137,-0.07954 l 11.759485,-6.362399 c 0.197741,-0.106243 0.33734,-0.312811 0.33734,-0.558061 0,-0.245249 -0.139599,-0.451818 -0.33734,-0.55806 L 18.903066,15.079541 c -0.08623,-0.04682 -0.179855,-0.07954 -0.284137,-0.07954 z"
     style="font-variation-settings:normal;opacity:1;vector-effect:none;fill:#ffffff;fill-opacity:1;stroke:none;stroke-width:1;stroke-linecap:butt;stroke-linejoin:miter;stroke-miterlimit:4;stroke-dasharray:none;stroke-dashoffset:0;stroke-opacity:1;-inkscape-stroke:none;marker:none;stop-color:#000000;stop-opacity:1"
     id="path980" /><path
     id="path980-6"
     style="font-variation-settings:normal;opacity:0.15;vector-effect:none;fill:#7a0000;fill-opacity:1;stroke:none;stroke-width:1;stroke-linecap:butt;stroke-linejoin:miter;stroke-miterlimit:4;stroke-dasharray:none;stroke-dashoffset:0;stroke-opacity:1;-inkscape-stroke:none;marker:none;stop-color:#000000;stop-opacity:1"
     d="m 30.751953,21.499953 c -0.02808,0.02162 -0.05852,0.04176 -0.08984,0.05859 l -11.759765,6.361328 c -0.0862,0.04681 -0.178878,0.08008 -0.283203,0.08008 C 18.277252,27.999953 18,27.714688 18,27.363234 v 1 c 0,0.351454 0.277252,0.636719 0.619141,0.636719 0.104325,0 0.197002,-0.03327 0.283203,-0.08008 L 30.662109,22.558547 C 30.85985,22.452304 31,22.245203 31,21.999953 c 0,-0.206397 -0.09886,-0.385139 -0.248047,-0.5 z" /><path
     id="rect5505-21-1-1"
     style="color:#000000;display:inline;overflow:visible;visibility:visible;fill:url(#linearGradient856-2-9);fill-opacity:1;fill-rule:nonzero;stroke:#000000;stroke-width:1;stroke-opacity:0.5;marker:none;enable-background:accumulate"
     d="m 4.5,35.5 v 5 c 0,2.215998 1.7840022,4 4,4 h 31 c 2.215998,0 4,-1.784002 4,-4 v -5 z" /><path
     id="rect6741-2-2"
     style="opacity:0.2;fill:none;stroke:url(#linearGradient2325);stroke-width:1;stroke-linecap:round;stroke-linejoin:miter;stroke-miterlimit:4;stroke-dasharray:none;stroke-dashoffset:0;stroke-opacity:1"
     d="m 5.5,36.5 v 4 c 0,1.661998 1.3380017,3 3,3 h 31 c 1.661998,0 3,-1.338002 3,-3 v -4" /><rect
     style="opacity:0.05;fill:#ffffff;fill-opacity:1;stroke:none;stroke-width:2;stroke-linecap:round;stroke-linejoin:round;stroke-miterlimit:4;stroke-dasharray:none;stroke-opacity:1"
     id="rect10944"
     width="32"
     height="1"
     x="8"
     y="40.01577"
     ry="0.25"
     rx="0.25" /><rect
     ry="0.46273786"
     y="39.01577"
     x="8"
     height="1"
     width="32"
     id="rect4497"
     style="opacity:0.4;fill:#000000;fill-opacity:1;stroke:none;stroke-width:2;stroke-linecap:round;stroke-linejoin:round;stroke-miterlimit:4;stroke-dasharray:none;stroke-opacity:1"
     rx="0.46273786" /><path
     style="color:#000000;display:inline;overflow:visible;visibility:visible;fill:url(#linearGradient14702);fill-opacity:1;fill-rule:nonzero;stroke:none;stroke-width:1;marker:none;enable-background:accumulate"
     id="path2555-7-1-9-4"
     d="m 16.5,37.515771 c 1.103532,0 2,0.896469 2,2 0,1.103532 -0.896468,2 -2,2 -1.103531,0 -2.000002,-0.896468 -2,-2 0,-1.103531 0.896469,-2 2,-2 z" /><path
     style="color:#000000;display:inline;overflow:visible;visibility:visible;opacity:0.15;fill:none;stroke:url(#linearGradient14699);stroke-width:1;stroke-linecap:round;stroke-linejoin:round;stroke-miterlimit:4;stroke-dasharray:none;stroke-dashoffset:0;stroke-opacity:1;marker:none;enable-background:accumulate"
     id="path8655-6-0-5-2"
     d="m 15.562513,39.609485 c 0,0.552303 0.447749,1.000036 0.999987,1.000036 0.55229,0 1.000013,-0.447738 1.000013,-1.000036 0,-0.552277 -0.447723,-0.999964 -1.000013,-0.999964 -0.552238,0 -0.999987,0.447687 -0.999987,0.999964 z" /><path
     style="color:#000000;display:inline;overflow:visible;visibility:visible;fill:none;stroke:#242424;stroke-width:1;stroke-linecap:round;stroke-linejoin:round;stroke-miterlimit:4;stroke-dasharray:none;stroke-dashoffset:0;stroke-opacity:1;marker:none;enable-background:accumulate"
     id="path2555-7-1-9-9-41"
     d="m 16.5,37.515771 c 1.103532,0 2,0.896469 2,2 0,1.103532 -0.896468,2 -2,2 -1.103531,0 -2.000002,-0.896468 -2,-2 0,-1.103531 0.896469,-2 2,-2 z" /></svg>
